<?xml version="1.0" encoding="UTF-8"?>
<!DOCTYPE svg PUBLIC "-//W3C//DTD SVG 1.1//EN" "http://www.w3.org/Graphics/SVG/1.1/DTD/svg11.dtd">
<svg version="1.1" id="Layer_1" xmlns="http://www.w3.org/2000/svg" xmlns:xlink="http://www.w3.org/1999/xlink" x="0px" y="0px" width="16px" height="16px" viewBox="0 0 16 16" enable-background="new 0 0 16 16" xml:space="preserve">
  <g id="icon">
    <path d="M6.2,2.1062c0.0721,-0.068,0.1675,-0.1058,0.2667,-0.1055l3.5252,0.0106c0.1568,0.0004,0.2351,0.19,0.1243,0.301L5.5,7h10.1c0.2137,0,0.4,0.1258,0.4,0.3394v0.8455v0.7578v0.6627c0,0.2137,-0.1732,0.3869,-0.3869,0.3869h-10.1l4.5854,4.7071c0.1104,0.1113,0.0316,0.3006,-0.1252,0.3006H6.4681c-0.1,0,-0.196,-0.0387,-0.2681,-0.108c0,0,-4.9524,-5.0102,-6.1116,-6.1834c-0.1186,-0.12,-0.1178,-0.3079,0.0019,-0.4268C1.2476,7.1318,6.2,2.1062,6.2,2.1062z" fill-rule="evenodd" fill="#FFFFFF"/>
  </g>
</svg>
