<?xml version="1.0" encoding="UTF-8"?>
<!DOCTYPE svg PUBLIC "-//W3C//DTD SVG 1.1//EN" "http://www.w3.org/Graphics/SVG/1.1/DTD/svg11.dtd">
<svg version="1.1" id="Layer_1" xmlns="http://www.w3.org/2000/svg" xmlns:xlink="http://www.w3.org/1999/xlink" x="0px" y="0px" width="24px" height="24px" viewBox="0 0 24 24" enable-background="new 0 0 24 24" xml:space="preserve">
  <g id="icon">
    <circle cx="12" cy="12" r="10" fill="#FFF2F2"/>
    <path d="M19.7782,4.2218l-1.2021,1.2021C20.2591,7.1069,21.3,9.4319,21.3,12c0,5.1362,-4.1638,9.3,-9.3,9.3c-2.5681,0,-4.8931,-1.0409,-6.5761,-2.7239l-1.2021,1.2021C6.2124,21.7688,8.9624,23,12,23c6.0751,0,11,-4.9249,11,-11C23,8.9624,21.7688,6.2124,19.7782,4.2218z" fill="#FF2C28"/>
    <path d="M4.9289,19.0711C6.7386,20.8807,9.2386,22,12,22c5.5228,0,10,-4.4772,10,-10c0,-2.7614,-1.1193,-5.2614,-2.9289,-7.0711L4.9289,19.0711z" fill="#420100" opacity="0.05"/>
    <path d="M5.4239,18.5761C3.7409,16.8931,2.7,14.5681,2.7,12c0,-5.1362,4.1638,-9.3,9.3,-9.3c2.5681,0,4.8931,1.0409,6.5761,2.7239l1.2021,-1.2021C17.7876,2.2312,15.0376,1,12,1C5.9249,1,1,5.9249,1,12c0,3.0376,1.2312,5.7876,3.2218,7.7782L5.4239,18.5761z" fill="#FE4D4A"/>
    <path d="M6.1167,11.6445l5.7983,-5.7983c0.1556,-0.1556,0.4101,-0.1556,0.5657,0l0.8485,0.8485c0.1556,0.1556,0.1556,0.4454,0,0.6009L9.6601,11h8.0195c0.22,0,0.4204,0.1095,0.4204,0.3295v1.2c0,0.22,-0.2004,0.4705,-0.4204,0.4705H9.6645l3.6647,3.6294c0.1556,0.1556,0.1556,0.3925,0,0.5481l-0.8485,0.8397c-0.1556,0.1556,-0.4101,0.1512,-0.5657,-0.0044l-4.9497,-4.9519l-0.8485,-0.8496C5.9611,12.0557,5.9611,11.8,6.1167,11.6445z" fill="#FF2C28"/>
  </g>
</svg>
