<?xml version="1.0" encoding="UTF-8"?>
<!DOCTYPE svg PUBLIC "-//W3C//DTD SVG 1.1//EN" "http://www.w3.org/Graphics/SVG/1.1/DTD/svg11.dtd">
<svg version="1.1" id="Layer_1" xmlns="http://www.w3.org/2000/svg" xmlns:xlink="http://www.w3.org/1999/xlink" x="0px" y="0px" width="16px" height="16px" viewBox="0 0 16 16" enable-background="new 0 0 16 16" xml:space="preserve">
  <g id="main">
    <g id="icon">
      <path d="M6.231,0.04395L5.554,0.1375L4.901,0.2947L4.275,0.5125L3.679,0.7877L3.117,1.118L2.592,1.499L2.106,1.929L1.662,2.405L1.265,2.923L0.917,3.481L0.6209,4.075L0.3803,4.704L0.1982,5.362L0.07773,6.048L0.02207,6.759L0.0003906,8.721L0.01094,10.68L0.04023,11.34L0.1299,11.88L0.2887,12.31L0.5252,12.65L0.848,12.89L1.266,13.06L1.787,13.15L2.421,13.18L6.275,13.18L6.167,12.85L6.043,12.19L6,11.5L6.019,11.12L5.943,11.11L5.143,10.86L4.42,10.46L3.789,9.926L3.269,9.282L2.877,8.542L2.629,7.724L2.542,6.846L2.629,5.968L2.877,5.15L3.269,4.41L3.789,3.766L4.419,3.234L5.143,2.832L5.942,2.579L6.801,2.49L7.659,2.579L8.459,2.832L9.182,3.234L9.812,3.766L10.33,4.41L10.73,5.15L10.97,5.968L10.98,6.026L11.5,6L12.19,6.043L12.85,6.167L13.48,6.368L13.6,6.424L13.58,6.161L13.48,5.481L13.3,4.826L13.08,4.199L12.79,3.603L12.45,3.041L12.07,2.517L11.64,2.033L11.16,1.593L10.65,1.201L10.1,0.8584L9.521,0.5699L8.909,0.3383L8.271,0.1666L7.61,0.05859L6.929,0.01699zz" fill="#797979"/>
      <path d="M5.942,2.579L5.143,2.832L4.419,3.234L3.789,3.766L3.269,4.41L2.876,5.15L2.628,5.968L2.542,6.846L2.629,7.724L2.877,8.542L3.269,9.282L3.789,9.926L4.42,10.46L5.143,10.86L5.943,11.11L6.019,11.12L6.029,10.94L6.112,10.39L6.248,9.866L6.433,9.361L6.665,8.88L6.941,8.427L7.257,8.004L7.613,7.613L8.004,7.257L8.427,6.941L8.88,6.665L9.361,6.433L9.866,6.248L10.39,6.112L10.94,6.029L10.98,6.026L10.97,5.968L10.73,5.15L10.33,4.41L9.812,3.766L9.182,3.234L8.459,2.832L7.659,2.579L6.801,2.49zz" fill-rule="evenodd" fill="#FFFFFF"/>
      <path d="M5.121,6.857L5.894,6.803L6.628,6.87L7.127,7.063L7.295,7.202L7.412,7.368L7.48,7.559L7.498,7.738L7.613,7.613L8.004,7.257L8.427,6.941L8.676,6.789L8.469,6.476L8.179,6.218L7.85,6.027L7.48,5.895L7.084,5.819L6.676,5.795L6.307,5.813L6.43,4.914L8.645,4.914L8.645,3.791L5.499,3.791zM4.83,9.401L5.483,9.632L5.924,9.706L6.299,9.727L6.433,9.361L6.665,8.88L6.849,8.578L6.771,8.612L6.359,8.664L5.974,8.637L5.614,8.567L5.067,8.376zz" fill="#3E79B4"/>
    </g>
    <g id="overlay">
      <path d="M11.5097,7.6964c2.0924,0,3.7886,1.6962,3.7886,3.7886c0,2.0924,-1.6962,3.7886,-3.7886,3.7886c-2.0924,0,-3.7886,-1.6962,-3.7886,-3.7886C7.7211,9.3926,9.4173,7.6964,11.5097,7.6964z" fill-rule="evenodd" fill="#FFFFFF"/>
      <path d="M11.4928,15.9855C9.0155,15.9855,7,13.9701,7,11.4928S9.0155,7,11.4928,7s4.4928,2.0155,4.4928,4.4928S13.9701,15.9855,11.4928,15.9855zM11.4928,8.0401c-1.9038,0,-3.4527,1.5489,-3.4527,3.4527c0,1.9039,1.5489,3.4527,3.4527,3.4527c1.9039,0,3.4527,-1.5489,3.4527,-3.4527C14.9455,9.5889,13.3966,8.0401,11.4928,8.0401z" fill-rule="evenodd" fill="#797979"/>
      <path d="M11.4928,7.1915c-2.3755,0,-4.3013,1.9258,-4.3013,4.3013c0,2.3755,1.9258,4.3013,4.3013,4.3013s4.3013,-1.9258,4.3013,-4.3013C15.7941,9.1172,13.8683,7.1915,11.4928,7.1915zM11.4928,15.137c-2.0126,0,-3.6442,-1.6316,-3.6442,-3.6442c0,-2.0126,1.6316,-3.6442,3.6442,-3.6442s3.6442,1.6316,3.6442,3.6442C15.137,13.5054,13.5054,15.137,11.4928,15.137z" fill-rule="evenodd" fill="#797979"/>
      <path d="M13.4291,13.8025c-0.3332,-0.0001,-1.8552,-1.3305,-2.0595,-1.5366c-0.18,-0.1816,-0.3125,-0.3152,-0.2603,-0.4859c-0.019,-0.098,-0.0215,-0.2161,-0.0211,-0.33c0.0007,-0.2121,0.0422,-0.9361,0.1057,-1.5878c0.1331,-1.3672,0.2504,-1.3672,0.3446,-1.3672c0.0949,0.0005,0.2126,0.0011,0.3202,1.3506c0.053,0.6645,0.0795,1.374,0.0788,1.5681c-0.0003,0.0698,-0.0007,0.1379,-0.0033,0.2005c0.0283,0.0265,0.0579,0.0555,0.0894,0.0873c0.1273,0.1284,0.5385,0.5753,0.9124,1.0266c0.6805,0.8215,0.6658,0.9601,0.5865,1.0388C13.5061,13.7831,13.4765,13.8025,13.4291,13.8025L13.4291,13.8025z" fill-rule="evenodd" fill="#3E79B4"/>
    </g>
  </g>
</svg>
