<?xml version="1.0" encoding="UTF-8"?>
<!DOCTYPE svg PUBLIC "-//W3C//DTD SVG 1.1//EN" "http://www.w3.org/Graphics/SVG/1.1/DTD/svg11.dtd">
<svg version="1.1" id="Layer_1" xmlns="http://www.w3.org/2000/svg" xmlns:xlink="http://www.w3.org/1999/xlink" x="0px" y="0px" width="32px" height="32px" viewBox="0 0 32 32" enable-background="new 0 0 32 32" xml:space="preserve">
  <g id="icon">
    <path d="M11.3814,18h18.115c0.2845,-0.0083,0.5036,-0.2134,0.5036,-0.4896v-4c0,-0.2807,-0.2297,-0.5104,-0.5104,-0.5104h-18.088l7.6695,-7.6585c0.1261,-0.126,0.0369,-0.3415,-0.1413,-0.3415h-6.2525c-0.2125,0,-0.4162,0.0845,-0.5663,0.2349l-9.9139,9.934c-0.2654,0.2999,-0.2654,0.4015,0.0157,0.6944l9.8779,9.9018c0.1501,0.1504,0.3539,0.235,0.5664,0.235h6.2414c0.1782,0,0.2674,-0.2154,0.1414,-0.3414L11.3814,18z" fill="#FFFFFF"/>
  </g>
</svg>
