<?xml version="1.0" encoding="UTF-8"?>
<!DOCTYPE svg PUBLIC "-//W3C//DTD SVG 1.1//EN" "http://www.w3.org/Graphics/SVG/1.1/DTD/svg11.dtd">
<svg version="1.1" id="Layer_1" xmlns="http://www.w3.org/2000/svg" xmlns:xlink="http://www.w3.org/1999/xlink" x="0px" y="0px" width="16px" height="16px" viewBox="0 0 16 16" enable-background="new 0 0 16 16" xml:space="preserve">
  <g id="icon">
    <path d="M12.1312,2.3908c-0.5622,0,-1.0958,0.1204,-1.5774,0.3349c-0.6712,-1.5704,-2.1914,-2.667,-3.9604,-2.667c-2.1875,0,-3.9948,1.6762,-4.286,3.8525C0.971,4.3134,0.0024,5.5004,0.0024,6.9026c0,2.0566,1.4853,2.7477,2.9976,2.9726V5.675C3,4.7499,3.7499,4,4.675,4h6.65c0.9251,0,1.675,0.7499,1.675,1.675v4.2827c1.8872,-0.1929,2.9845,-1.7711,2.9845,-3.7468C15.9845,4.1011,14.2594,2.3908,12.1312,2.3908z" fill-rule="evenodd" fill="#3E79B4"/>
    <path d="M11.2833,5h-6.55C4.3375,5,4,5.3209,4,5.7167V8h8V5.7167C12,5.3209,11.6791,5,11.2833,5zM11,7H9V6h2V7zM4,15.2833c0,0.3958,0.3375,0.7167,0.7333,0.7167h6.55c0.3958,0,0.7167,-0.3209,0.7167,-0.7167V9H4V15.2833zM8,11.8c0.6627,0,1.2,0.5373,1.2,1.2c0,0.6627,-0.5373,1.2,-1.2,1.2s-1.2,-0.5373,-1.2,-1.2C6.8,12.3373,7.3373,11.8,8,11.8z" fill="#797979"/>
    <path d="M9,6h2v1H9V6zM8,11.8c-0.6627,0,-1.2,0.5373,-1.2,1.2c0,0.6627,0.5373,1.2,1.2,1.2s1.2,-0.5373,1.2,-1.2C9.2,12.3373,8.6627,11.8,8,11.8z" fill-rule="evenodd" fill="#FFFFFF"/>
  </g>
</svg>
