<?xml version="1.0" encoding="UTF-8"?>
<!DOCTYPE svg PUBLIC "-//W3C//DTD SVG 1.1//EN" "http://www.w3.org/Graphics/SVG/1.1/DTD/svg11.dtd">
<svg version="1.1" id="Layer_1" xmlns="http://www.w3.org/2000/svg" xmlns:xlink="http://www.w3.org/1999/xlink" x="0px" y="0px" width="16px" height="16px" viewBox="0 0 16 16" enable-background="new 0 0 16 16" xml:space="preserve">
  <g id="icon">
    <path d="M13.9,16c-0.6,0,-8.139,-0.013,-11.653,-0.014c-0.633,0,-1.247,-0.906,-1.247,-1.524c0,-4.262,0,-8.818,0,-12.994C1,0.582,1.621,-0.002,2.5,0v14c-0.579,0.102,-0.6,1,0,1c3.346,0,10.8,0,11.5,0S14.5,16,13.9,16zM15,0c0,4.413,0,9.558,0,14.003c-3.45,0,-8.565,-0.003,-12,-0.003c0,-4.423,0,-9.564,0,-14C6.418,0,11.55,0,15,0zM7,9.442c0,-0.244,-0.198,-0.442,-0.442,-0.442H5.442C5.198,9,5,9.198,5,9.442V12h2V9.442zM10,8.442c0,-0.244,-0.198,-0.442,-0.442,-0.442H8.442C8.198,8,8,8.198,8,8.442V12h2V8.442zM13,7.442c0,-0.244,-0.198,-0.442,-0.442,-0.442h-1.117c-0.244,0,-0.442,0.198,-0.442,0.442V12h2V7.442zM13.478,3.204c-0.033,-0.051,-0.089,-0.082,-0.149,-0.082c-0.009,0,-0.017,0.001,-0.026,0.002l-1.72,0.249c-0.062,0.009,-0.114,0.049,-0.139,0.107c-0.025,0.058,-0.017,0.123,0.019,0.174l0.288,0.401L9.596,5.852l-1.292,-1.35c-0.035,-0.043,-0.088,-0.068,-0.144,-0.068c-0.037,0,-0.073,0.011,-0.105,0.032L4.488,6.935c-0.027,0.018,-0.046,0.046,-0.053,0.078c-0.007,0.032,0,0.065,0.018,0.093l0.29,0.439c0.019,0.029,0.051,0.049,0.086,0.054L4.841,7.6h0.005c0.024,0,0.047,-0.007,0.067,-0.02l3.132,-2.178L9.36,6.756c0.036,0.044,0.09,0.069,0.148,0.069c0.034,0,0.068,-0.009,0.097,-0.026l0.005,-0.003l2.592,-2.107l0.252,0.346c0.034,0.047,0.087,0.074,0.145,0.074c0.07,0,0.134,-0.041,0.163,-0.106l0.729,-1.63C13.516,3.318,13.511,3.254,13.478,3.204z" fill="#FFFFFF"/>
  </g>
</svg>
