<?xml version="1.0" encoding="UTF-8"?>
<!DOCTYPE svg PUBLIC "-//W3C//DTD SVG 1.1//EN" "http://www.w3.org/Graphics/SVG/1.1/DTD/svg11.dtd">
<svg version="1.1" id="Layer_1" xmlns="http://www.w3.org/2000/svg" xmlns:xlink="http://www.w3.org/1999/xlink" x="0px" y="0px" width="32px" height="32px" viewBox="0 0 32 32" enable-background="new 0 0 32 32" xml:space="preserve">
  <g id="icon">
    <path d="M23.8122,5.4549c-1.0535,0,-2.0532,0.2301,-2.9556,0.6403c-1.2577,-3.0018,-4.106,-5.098,-7.4206,-5.098c-4.0986,0,-7.485,3.2041,-8.0307,7.3641c-2.5038,0.7688,-4.3187,3.0378,-4.3187,5.718c0,5.0146,4.5282,5.7839,7.9134,5.8714V12.975c0,-1.0908,0.8842,-1.975,1.975,-1.975h10.05c1.0908,0,1.975,0.8842,1.975,1.975V20h1.5132c0.0829,0,0.2487,-0.0093,0.4549,-0.0459c3.825,-0.1388,6.064,-3.255,6.064,-7.1971C31.0321,8.7241,27.7997,5.4549,23.8122,5.4549z" fill-rule="evenodd" fill="#3E79B4"/>
    <path d="M21.0875,12h-10.175c-0.504,0,-0.9125,0.4085,-0.9125,0.9125V15h12v-2.0875C22,12.4085,21.5915,12,21.0875,12zM20,14h-2v-1h2V14zM10,19h12v-3H10V19zM18,17h2v1h-2V17zM10,30.0875c0,0.504,0.4085,0.9125,0.9125,0.9125h10.175c0.504,0,0.9125,-0.4085,0.9125,-0.9125V20H10V30.0875zM16,26c0.8284,0,1.5,0.6716,1.5,1.5c0,0.8284,-0.6716,1.5,-1.5,1.5s-1.5,-0.6716,-1.5,-1.5C14.5,26.6716,15.1716,26,16,26z" fill="#797979"/>
    <path d="M20,14h-2v-1h2V14zM20,17h-2v1h2V17zM16,26c-0.8284,0,-1.5,0.6716,-1.5,1.5s0.6716,1.5,1.5,1.5s1.5,-0.6716,1.5,-1.5S16.8284,26,16,26z" fill="#FFFFFF"/>
  </g>
</svg>
