<?xml version="1.0" encoding="UTF-8"?>
<!DOCTYPE svg PUBLIC "-//W3C//DTD SVG 1.1//EN" "http://www.w3.org/Graphics/SVG/1.1/DTD/svg11.dtd">
<svg version="1.1" id="Layer_1" xmlns="http://www.w3.org/2000/svg" xmlns:xlink="http://www.w3.org/1999/xlink" x="0px" y="0px" width="16px" height="16px" viewBox="0 0 16 16" enable-background="new 0 0 16 16" xml:space="preserve">
  <g id="main">
    <g id="icon">
      <path d="M6.231,0.04395L5.554,0.1375L4.901,0.2947L4.275,0.5125L3.679,0.7877L3.117,1.118L2.592,1.499L2.106,1.929L1.662,2.405L1.265,2.923L0.917,3.481L0.6209,4.075L0.3803,4.704L0.1982,5.362L0.07773,6.048L0.02207,6.759L0.0003906,8.721L0.01094,10.68L0.04023,11.34L0.1299,11.88L0.2887,12.31L0.5252,12.65L0.848,12.89L1.266,13.06L1.787,13.15L2.421,13.18L6.096,13.18L6.026,12.96L6,12.7L6,11.12L5.943,11.11L5.143,10.86L4.42,10.46L3.789,9.926L3.269,9.282L2.877,8.542L2.629,7.724L2.542,6.846L2.629,5.968L2.877,5.15L3.269,4.41L3.789,3.766L4.419,3.234L5.143,2.832L5.942,2.579L6.801,2.49L7.659,2.579L8.459,2.832L9.182,3.234L9.812,3.766L10.33,4.41L10.73,5.15L10.97,5.968L10.98,6L12.7,6L12.96,6.026L13.21,6.102L13.6,6.366L13.58,6.161L13.48,5.481L13.3,4.826L13.08,4.199L12.79,3.603L12.45,3.041L12.07,2.517L11.64,2.033L11.16,1.593L10.65,1.201L10.1,0.8584L9.521,0.5699L8.909,0.3383L8.271,0.1666L7.61,0.05859L6.929,0.01699zM14,14.05L14.11,14.06L14.43,14L14,14zz" fill="#797979"/>
      <path d="M5.942,2.579L5.143,2.832L4.419,3.234L3.789,3.766L3.269,4.41L2.876,5.15L2.628,5.968L2.542,6.846L2.629,7.724L2.877,8.542L3.269,9.282L3.789,9.926L4.42,10.46L5.143,10.86L5.943,11.11L6,11.12L6,10.3L6.026,10.04L6.102,9.794L6.381,9.381L6.794,9.102L7.038,9.026L7.3,9L9,9L9,7.3L9.026,7.038L9.102,6.794L9.381,6.381L9.794,6.102L10.04,6.026L10.3,6L10.98,6L10.97,5.968L10.73,5.15L10.33,4.41L9.812,3.766L9.182,3.234L8.459,2.832L7.659,2.579L6.801,2.49zz" fill-rule="evenodd" fill="#FFFFFF"/>
      <path d="M5.121,6.857L5.894,6.803L6.628,6.87L7.127,7.063L7.295,7.202L7.412,7.368L7.48,7.559L7.502,7.774L7.476,7.99L7.401,8.175L7.138,8.452L6.771,8.612L6.359,8.664L5.974,8.637L5.614,8.567L5.067,8.376L4.83,9.401L5.483,9.632L5.924,9.706L6.153,9.719L6.381,9.381L6.794,9.102L7.038,9.026L7.3,9L8.33,9L8.503,8.811L8.706,8.463L8.831,8.084L8.873,7.684L8.825,7.209L8.687,6.806L8.469,6.476L8.179,6.218L7.85,6.027L7.48,5.895L7.084,5.819L6.676,5.795L6.307,5.813L6.43,4.914L8.645,4.914L8.645,3.791L5.499,3.791zz" fill="#3E79B4"/>
    </g>
    <g id="overlay">
      <path d="M15.7,10h-2.7V7.3c0,-0.166,-0.134,-0.3,-0.3,-0.3h-2.4c-0.166,0,-0.3,0.134,-0.3,0.3v2.7H7.3c-0.166,0,-0.3,0.134,-0.3,0.3v2.4c0,0.166,0.134,0.3,0.3,0.3h2.7v2.7c0,0.166,0.134,0.3,0.3,0.3h2.4c0.166,0,0.3,-0.134,0.3,-0.3v-2.7h2.7c0.166,0,0.3,-0.134,0.3,-0.3v-2.4C16,10.134,15.866,10,15.7,10z" fill="#4EA17E"/>
    </g>
  </g>
</svg>
