<?xml version="1.0" encoding="UTF-8"?>
<!DOCTYPE svg PUBLIC "-//W3C//DTD SVG 1.1//EN" "http://www.w3.org/Graphics/SVG/1.1/DTD/svg11.dtd">
<svg version="1.1" id="Layer_1" xmlns="http://www.w3.org/2000/svg" xmlns:xlink="http://www.w3.org/1999/xlink" x="0px" y="0px" width="32px" height="32px" viewBox="0 0 32 32" enable-background="new 0 0 32 32" xml:space="preserve">
  <g id="main">
    <g id="icon">
      <path d="M12.46,1.395L11.11,1.577L9.803,1.884L8.551,2.308L7.359,2.845L6.235,3.488L5.183,4.232L4.211,5.071L3.325,5.998L2.53,7.008L1.834,8.096L1.242,9.255L0.7607,10.48L0.3965,11.76L0.1555,13.1L0.04395,14.49L0.0005859,18.31L0.02305,22.14L0.08164,23.42L0.2611,24.47L0.4016,24.92L0.5785,25.32L0.7945,25.66L1.051,25.97L1.351,26.23L1.697,26.45L2.09,26.63L2.532,26.77L3.575,26.95L4.842,27.01L18,27.02L18,21.92L17.66,22.12L16.92,22.48L16.13,22.77L15.32,22.98L14.47,23.11L13.6,23.15L12.73,23.11L11.89,22.98L11.07,22.77L10.29,22.48L9.541,22.12L8.839,21.7L8.183,21.21L7.578,20.66L7.028,20.06L6.538,19.4L6.111,18.7L5.753,17.96L5.466,17.18L5.256,16.37L5.127,15.52L5.083,14.66L5.127,13.79L5.256,12.94L5.466,12.13L5.753,11.35L6.111,10.61L6.538,9.907L7.028,9.254L7.578,8.65L8.183,8.102L8.839,7.613L9.541,7.188L10.29,6.83L11.07,6.545L11.89,6.336L12.73,6.207L13.6,6.163L14.47,6.207L15.32,6.336L16.14,6.545L16.92,6.83L17.66,7.188L18.37,7.613L19.02,8.102L19.63,8.65L20.18,9.254L20.67,9.907L21.09,10.61L21.45,11.35L21.74,12.13L21.95,12.94L22.08,13.79L22.12,14.66L22.08,15.52L21.95,16.37L21.78,17L22.41,17L22.65,16.6L23,16.28L23.43,16.08L23.92,16L26.07,16L26.57,16.08L27,16.28L27.26,16.52L27.26,14.69L27.17,13.32L26.95,12L26.61,10.72L26.15,9.496L25.58,8.334L24.91,7.238L24.14,6.216L23.28,5.273L22.33,4.415L21.3,3.65L20.21,2.982L19.04,2.42L17.82,1.968L16.54,1.634L15.22,1.423L13.86,1.342zz" fill="#797979"/>
      <path d="M12.73,6.207L11.89,6.336L11.07,6.545L10.29,6.83L9.541,7.188L8.839,7.614L8.183,8.103L7.578,8.651L7.028,9.254L6.538,9.908L6.111,10.61L5.753,11.35L5.466,12.13L5.256,12.94L5.127,13.79L5.083,14.66L5.127,15.52L5.256,16.37L5.466,17.18L5.753,17.96L6.111,18.7L6.538,19.4L7.028,20.06L7.578,20.66L8.183,21.21L8.839,21.7L9.541,22.12L10.29,22.48L11.07,22.77L11.89,22.98L12.73,23.11L13.6,23.15L14.47,23.11L15.32,22.98L16.14,22.77L16.92,22.48L17.66,22.12L18,21.92L18,21.47L17.6,21.32L17.29,21.04L17.08,20.68L17,20.25L17,18.89L17.04,18.52L17.15,18.16L17.32,17.84L17.54,17.56L17.81,17.33L18.12,17.15L18.46,17.04L18.82,17L21.78,17L21.95,16.37L22.08,15.52L22.12,14.66L22.08,13.79L21.95,12.94L21.74,12.13L21.45,11.35L21.09,10.61L20.67,9.907L20.18,9.254L19.63,8.65L19.02,8.102L18.37,7.613L17.66,7.188L16.92,6.83L16.14,6.545L15.32,6.336L14.47,6.207L13.6,6.163zz" fill-rule="evenodd" fill="#FFFFFF"/>
      <path d="M10.24,14.68L10.96,14.6L11.79,14.57L12.58,14.61L13.25,14.7L13.81,14.86L14.25,15.08L14.59,15.35L14.82,15.68L14.96,16.05L15.01,16.47L14.95,16.89L14.8,17.25L14.57,17.55L14.28,17.79L13.93,17.97L13.54,18.1L13.14,18.18L12.72,18.2L11.95,18.15L11.23,18.01L10.61,17.83L10.14,17.64L9.661,19.64L10.23,19.88L10.97,20.09L11.85,20.23L12.84,20.29L13.94,20.2L14.91,19.96L15.75,19.58L16.45,19.08L17.01,18.49L17.09,18.35L17.15,18.16L17.32,17.84L17.46,17.66L17.66,17.07L17.75,16.29L17.72,15.81L17.65,15.36L17.53,14.95L17.38,14.58L17.18,14.24L16.94,13.94L16.36,13.43L15.7,13.06L14.96,12.8L14.17,12.66L13.35,12.61L12.61,12.64L12.86,10.89L17.29,10.89L17.29,8.701L11,8.701zz" fill="#3E79B4"/>
    </g>
    <g id="overlay">
      <path d="M19,21v9.8337c0,0.6867,0.6333,1.1663,1.325,1.1663h9.3454c0.6917,0,1.3296,-0.4796,1.3296,-1.1663V21H19zM23,29.3833c0,0.3406,-0.2761,0.6167,-0.6167,0.6167h-0.7667c-0.3406,0,-0.6167,-0.2761,-0.6167,-0.6167v-5.7667c0,-0.3406,0.2761,-0.6167,0.6167,-0.6167h0.7667c0.3406,0,0.6167,0.2761,0.6167,0.6167V29.3833zM26,29.3833c0,0.3406,-0.2761,0.6167,-0.6167,0.6167h-0.7667c-0.3406,0,-0.6167,-0.2761,-0.6167,-0.6167v-5.7667c0,-0.3406,0.2761,-0.6167,0.6167,-0.6167h0.7667c0.3406,0,0.6167,0.2761,0.6167,0.6167V29.3833zM29,29.3833c0,0.3406,-0.2761,0.6167,-0.6167,0.6167h-0.7667c-0.3406,0,-0.6167,-0.2761,-0.6167,-0.6167v-5.7667c0,-0.3406,0.2761,-0.6167,0.6167,-0.6167h0.7667c0.3406,0,0.6167,0.2761,0.6167,0.6167V29.3833z" fill="#797979"/>
      <path d="M31.1718,18H26.7v-0.4652c0,-0.2954,-0.3276,-0.5348,-0.625,-0.5348h-2.1546c-0.2975,0,-0.6204,0.2394,-0.6204,0.5348V18h-4.4765c-0.4574,0,-0.8235,0.4377,-0.8235,0.8918v1.3562c0,0.144,0.1129,0.252,0.2579,0.252h13.4795c0.145,0,0.2626,-0.108,0.2626,-0.252v-1.3562C32,18.4377,31.6292,18,31.1718,18z" fill="#3E79B4"/>
      <path d="M22.3833,30.0333h-0.7667c-0.3406,0,-0.6167,-0.2761,-0.6167,-0.6167v-5.8c0,-0.3406,0.2761,-0.6167,0.6167,-0.6167h0.7667c0.3406,0,0.6167,0.2761,0.6167,0.6167v5.8C23,29.7572,22.7239,30.0333,22.3833,30.0333zM26,29.4167v-5.8c0,-0.3406,-0.2761,-0.6167,-0.6167,-0.6167h-0.7667c-0.3406,0,-0.6167,0.2761,-0.6167,0.6167v5.8c0,0.3406,0.2761,0.6167,0.6167,0.6167h0.7667C25.7239,30.0333,26,29.7572,26,29.4167zM29,29.4167v-5.8c0,-0.3406,-0.2761,-0.6167,-0.6167,-0.6167h-0.7667c-0.3406,0,-0.6167,0.2761,-0.6167,0.6167v5.8c0,0.3406,0.2761,0.6167,0.6167,0.6167h0.7667C28.7239,30.0333,29,29.7572,29,29.4167z" fill="#FFFFFF"/>
    </g>
  </g>
</svg>
