<?xml version="1.0" encoding="UTF-8"?>
<!DOCTYPE svg PUBLIC "-//W3C//DTD SVG 1.1//EN" "http://www.w3.org/Graphics/SVG/1.1/DTD/svg11.dtd">
<svg version="1.1" id="Layer_1" xmlns="http://www.w3.org/2000/svg" xmlns:xlink="http://www.w3.org/1999/xlink" x="0px" y="0px" width="16px" height="16px" viewBox="0 0 16 16" enable-background="new 0 0 16 16" xml:space="preserve">
  <g id="main">
    <g id="icon">
      <path d="M6.231,0.04395L5.554,0.1375L4.901,0.2947L4.275,0.5125L3.679,0.7877L3.117,1.118L2.592,1.499L2.106,1.929L1.662,2.405L1.265,2.923L0.917,3.481L0.6209,4.075L0.3803,4.704L0.1982,5.362L0.07773,6.048L0.02207,6.759L0.0003906,8.721L0.01094,10.68L0.04023,11.34L0.1299,11.88L0.2887,12.31L0.5252,12.65L0.848,12.89L1.266,13.06L1.787,13.15L2.421,13.18L6.594,13.18L9.987,9.962L9.963,9.739L9.812,9.926L9.182,10.46L8.459,10.86L7.659,11.11L6.801,11.2L5.943,11.11L5.143,10.86L4.42,10.46L3.789,9.926L3.269,9.282L2.877,8.542L2.629,7.724L2.542,6.846L2.629,5.968L2.877,5.15L3.269,4.41L3.789,3.766L4.419,3.234L5.143,2.832L5.942,2.579L6.801,2.49L7.659,2.579L8.459,2.832L9.182,3.234L9.812,3.766L10.33,4.41L10.73,5.15L10.97,5.968L11.06,6.846L11.05,6.904L11.41,6.622L12.12,6.262L12.89,6.036L13.55,5.971L13.48,5.481L13.3,4.826L13.08,4.199L12.79,3.603L12.45,3.041L12.07,2.517L11.64,2.033L11.16,1.593L10.65,1.201L10.1,0.8584L9.521,0.5699L8.909,0.3383L8.271,0.1666L7.61,0.05859L6.929,0.01699zz" fill="#797979"/>
      <path d="M5.942,2.579L5.143,2.832L4.419,3.234L3.789,3.766L3.269,4.41L2.876,5.15L2.628,5.968L2.542,6.846L2.629,7.724L2.877,8.542L3.269,9.282L3.789,9.926L4.42,10.46L5.143,10.86L5.943,11.11L6.801,11.2L7.659,11.11L8.459,10.86L9.182,10.46L9.812,9.926L9.963,9.739L9.94,9.511L9.946,9.079L10.1,8.287L10.4,7.619L10.8,7.105L11.05,6.904L11.06,6.846L10.97,5.968L10.73,5.15L10.33,4.41L9.812,3.766L9.182,3.234L8.459,2.832L7.659,2.579L6.801,2.49zz" fill-rule="evenodd" fill="#FFFFFF"/>
      <path d="M5.121,6.857L5.894,6.803L6.628,6.87L7.127,7.063L7.295,7.202L7.412,7.368L7.48,7.559L7.502,7.774L7.476,7.99L7.401,8.175L7.138,8.452L6.771,8.612L6.359,8.664L5.974,8.637L5.614,8.567L5.067,8.376L4.83,9.401L5.483,9.632L5.924,9.706L6.421,9.734L6.968,9.691L7.453,9.567L7.873,9.372L8.224,9.117L8.503,8.811L8.706,8.463L8.831,8.084L8.873,7.684L8.825,7.209L8.687,6.806L8.469,6.476L8.179,6.218L7.85,6.027L7.48,5.895L7.084,5.819L6.676,5.795L6.307,5.813L6.43,4.914L8.645,4.914L8.645,3.791L5.499,3.791zz" fill="#3E79B4"/>
    </g>
    <g id="overlay">
      <path d="M7.3916,15.8123l-0.5726,-0.5565c-0.2579,-0.2502,-0.2579,-0.6559,0,-0.9061l4.2778,-4.0624c-0.3686,-1.0839,-0.0506,-2.0291,0.3985,-2.4649c0.5889,-0.5714,1.7844,-1.1359,3.1304,-0.7235c0.0157,0.0077,0.0371,0.0217,0.0572,0.0342l-1.8992,1.8429c-0.41,0.3979,-0.2709,0.6776,0.0797,1.0177c0.3506,0.3402,0.8423,0.4043,1.1049,0.1496l1.8791,-1.8234c0.013,0.0221,0.027,0.0451,0.0355,0.0636c0.3826,1.3612,-0.2512,2.48,-0.761,2.9578c-0.6418,0.6014,-1.4446,0.6832,-2.5912,0.3295l-4.2052,4.1416C8.0676,16.0626,7.6495,16.0626,7.3916,15.8123zM8.2467,15.0597c0.1835,-0.1781,0.1835,-0.4668,0,-0.6449c-0.1835,-0.1781,-0.4811,-0.1781,-0.6646,0c-0.1835,0.1781,-0.1835,0.4668,0,0.6449S8.0632,15.2378,8.2467,15.0597z" fill-rule="evenodd" fill="#797979"/>
    </g>
  </g>
</svg>
