<?xml version="1.0" encoding="UTF-8"?>
<!DOCTYPE svg PUBLIC "-//W3C//DTD SVG 1.1//EN" "http://www.w3.org/Graphics/SVG/1.1/DTD/svg11.dtd">
<svg version="1.1" id="Layer_1" xmlns="http://www.w3.org/2000/svg" xmlns:xlink="http://www.w3.org/1999/xlink" x="0px" y="0px" width="16px" height="16px" viewBox="0 0 16 16" enable-background="new 0 0 16 16" xml:space="preserve">
  <g id="main">
    <g id="icon">
      <path d="M6.231,0.04395L5.554,0.1375L4.901,0.2947L4.275,0.5125L3.679,0.7877L3.117,1.118L2.592,1.499L2.106,1.929L1.662,2.405L1.265,2.923L0.917,3.481L0.6209,4.075L0.3803,4.704L0.1982,5.362L0.07773,6.048L0.02207,6.759L0.0003906,8.721L0.01094,10.68L0.04023,11.34L0.1299,11.88L0.2887,12.31L0.5252,12.65L0.848,12.89L1.266,13.06L1.787,13.15L2.421,13.18L7.4,13.19L7.4,11.14L6.801,11.2L5.943,11.11L5.143,10.86L4.42,10.46L3.789,9.926L3.269,9.282L2.877,8.542L2.629,7.724L2.542,6.846L2.629,5.968L2.877,5.15L3.269,4.41L3.789,3.766L4.419,3.234L5.143,2.832L5.942,2.579L6.801,2.49L7.659,2.579L8.459,2.832L9.182,3.234L9.812,3.766L10.33,4.41L10.73,5.15L10.97,5.968L10.98,6L13.56,6L13.48,5.481L13.3,4.826L13.08,4.199L12.79,3.603L12.45,3.041L12.07,2.517L11.64,2.033L11.16,1.593L10.65,1.201L10.1,0.8584L9.521,0.5699L8.909,0.3383L8.271,0.1666L7.61,0.05859L6.929,0.01699zz" fill="#797979"/>
      <path d="M5.942,2.579L5.143,2.832L4.419,3.234L3.789,3.766L3.269,4.41L2.876,5.15L2.628,5.968L2.542,6.846L2.629,7.724L2.877,8.542L3.269,9.282L3.789,9.926L4.42,10.46L5.143,10.86L5.943,11.11L6.801,11.2L7.4,11.14L7.4,9.745L7.194,9.55L7.036,9.313L6.936,9.043L6.9,8.748L6.9,7.892L6.938,7.516L7.046,7.164L7.216,6.843L7.441,6.561L7.712,6.328L8.022,6.151L8.361,6.039L8.723,6L10.98,6L10.97,5.968L10.73,5.15L10.33,4.41L9.812,3.766L9.182,3.234L8.459,2.832L7.659,2.579L6.801,2.49zz" fill-rule="evenodd" fill="#FFFFFF"/>
      <path d="M5.121,6.857L5.894,6.803L6.628,6.87L7.104,7.054L7.216,6.843L7.441,6.561L7.712,6.328L8.022,6.151L8.049,6.142L7.85,6.027L7.48,5.895L7.084,5.819L6.676,5.795L6.307,5.813L6.43,4.914L8.645,4.914L8.645,3.791L5.499,3.791zM4.83,9.401L5.483,9.632L5.924,9.706L6.421,9.734L6.968,9.691L7.263,9.615L7.194,9.55L7.036,9.313L6.936,9.043L6.9,8.748L6.9,8.556L6.771,8.612L6.359,8.664L5.974,8.637L5.614,8.567L5.067,8.376zz" fill="#3E79B4"/>
    </g>
    <g id="overlay">
      <path d="M8.4,9.5v5.4671C8.4,15.6538,9.0333,16,9.725,16h4.3454c0.6917,0,1.3296,-0.3462,1.3296,-1.0329V9.5H8.4z" fill="#797979"/>
      <path d="M15.1718,7H12.1h-0.4H8.7235C8.2661,7,7.9,7.4377,7.9,7.8918v0.8562c0,0.144,0.1129,0.252,0.2579,0.252h7.5795c0.145,0,0.2626,-0.108,0.2626,-0.252v-0.8562C16,7.4377,15.6292,7,15.1718,7z" fill="#3E79B4"/>
      <rect x="9.9" y="10.5" width="1" height="4.5" fill="#FFFFFF"/>
      <rect x="12.9" y="10.5" width="1" height="4.5" fill="#FFFFFF"/>
    </g>
  </g>
</svg>
