<?xml version="1.0" encoding="UTF-8"?>
<!DOCTYPE svg PUBLIC "-//W3C//DTD SVG 1.1//EN" "http://www.w3.org/Graphics/SVG/1.1/DTD/svg11.dtd">
<svg version="1.1" id="Layer_1" xmlns="http://www.w3.org/2000/svg" xmlns:xlink="http://www.w3.org/1999/xlink" x="0px" y="0px" width="32px" height="32px" viewBox="0 0 32 32" enable-background="new 0 0 32 32" xml:space="preserve">
  <g id="main">
    <g id="icon">
      <path d="M12.46,1.395L11.11,1.577L9.803,1.884L8.551,2.308L7.359,2.845L6.235,3.488L5.183,4.232L4.211,5.071L3.325,5.998L2.53,7.008L1.834,8.096L1.242,9.255L0.7607,10.48L0.3965,11.76L0.1555,13.1L0.04395,14.49L0.0005859,18.31L0.02305,22.14L0.08164,23.42L0.2611,24.47L0.4016,24.92L0.5785,25.32L0.7945,25.66L1.051,25.97L1.351,26.23L1.697,26.45L2.09,26.63L2.532,26.77L3.575,26.95L4.842,27.01L19.18,27.02L19.49,26.68L20.1,26.12L20.58,25.74L19.89,25.65L19.25,25.46L18.68,25.16L18.21,24.77L17.88,24.38L17.57,23.91L17.3,23.38L17.08,22.79L17,22.44L16.92,22.48L16.13,22.77L15.32,22.98L14.47,23.11L13.6,23.15L12.73,23.11L11.89,22.98L11.07,22.77L10.29,22.48L9.541,22.12L8.839,21.7L8.183,21.21L7.578,20.66L7.028,20.06L6.538,19.4L6.111,18.7L5.753,17.96L5.466,17.18L5.256,16.37L5.127,15.52L5.083,14.66L5.127,13.79L5.256,12.94L5.466,12.13L5.753,11.35L6.111,10.61L6.538,9.907L7.028,9.254L7.578,8.65L8.183,8.102L8.839,7.613L9.541,7.188L10.29,6.83L11.07,6.545L11.89,6.336L12.73,6.207L13.6,6.163L14.47,6.207L15.32,6.336L16.14,6.545L16.92,6.83L17.66,7.188L18.37,7.613L19.02,8.102L19.63,8.65L20.18,9.254L20.67,9.907L21.09,10.61L21.45,11.35L21.74,12.13L21.95,12.94L22.08,13.79L22.12,14.66L22.08,15.52L21.95,16.37L21.74,17.18L21.54,17.73L22.1,17.87L22.73,18.14L23.27,18.46L23.9,18.12L24.73,17.87L25.64,17.71L26.51,17.65L27.27,17.71L27.26,14.69L27.17,13.32L26.95,12L26.61,10.72L26.15,9.496L25.58,8.334L24.91,7.238L24.14,6.216L23.28,5.273L22.33,4.415L21.3,3.65L20.21,2.982L19.04,2.42L17.82,1.968L16.54,1.634L15.22,1.423L13.86,1.342zz" fill="#797979"/>
      <path d="M12.73,6.207L11.89,6.336L11.07,6.545L10.29,6.83L9.541,7.188L8.839,7.614L8.183,8.103L7.578,8.651L7.028,9.254L6.538,9.908L6.111,10.61L5.753,11.35L5.466,12.13L5.256,12.94L5.127,13.79L5.083,14.66L5.127,15.52L5.256,16.37L5.466,17.18L5.753,17.96L6.111,18.7L6.538,19.4L7.028,20.06L7.578,20.66L8.183,21.21L8.839,21.7L9.541,22.12L10.29,22.48L11.07,22.77L11.89,22.98L12.73,23.11L13.6,23.15L14.47,23.11L15.32,22.98L16.14,22.77L16.92,22.48L17,22.44L16.94,22.15L16.88,21.47L16.93,20.74L17.1,19.99L17.12,19.92L17.15,19.85L17.24,19.7L17.92,18.6L17.92,18.59L19.03,17.94L19.19,17.86L19.26,17.83L19.33,17.8L19.97,17.67L20.62,17.63L21.39,17.69L21.54,17.73L21.74,17.18L21.95,16.37L22.08,15.52L22.12,14.66L22.08,13.79L21.95,12.94L21.74,12.13L21.45,11.35L21.09,10.61L20.67,9.907L20.18,9.254L19.63,8.65L19.02,8.102L18.37,7.613L17.66,7.188L16.92,6.83L16.14,6.545L15.32,6.336L14.47,6.207L13.6,6.163zz" fill-rule="evenodd" fill="#FFFFFF"/>
      <path d="M10.24,14.68L10.96,14.6L11.79,14.57L12.58,14.61L13.25,14.7L13.81,14.86L14.25,15.08L14.59,15.35L14.82,15.68L14.96,16.05L15.01,16.47L14.95,16.89L14.8,17.25L14.57,17.55L14.28,17.79L13.93,17.97L13.54,18.1L13.14,18.18L12.72,18.2L11.95,18.15L11.23,18.01L10.61,17.83L10.14,17.64L9.661,19.64L10.23,19.88L10.97,20.09L11.85,20.23L12.84,20.29L13.94,20.2L14.91,19.96L15.75,19.58L16.45,19.08L17.01,18.49L17.41,17.81L17.66,17.07L17.75,16.29L17.72,15.81L17.65,15.36L17.53,14.95L17.38,14.58L17.18,14.24L16.94,13.94L16.36,13.43L15.7,13.06L14.96,12.8L14.17,12.66L13.35,12.61L12.61,12.64L12.86,10.89L17.29,10.89L17.29,8.701L11,8.701zz" fill="#3E79B4"/>
    </g>
    <g id="overlay">
      <g>
        <polygon points="26.2261,24.4645 27.8375,22.7805 26.6579,21.5649 25.0486,23.2468" fill-rule="evenodd" fill="#797979" stroke-linejoin="miter"/>
        <polygon points="22.3354,26.0639 21.6969,26.7085 22.8765,27.9241 23.4986,27.2962" fill-rule="evenodd" fill="#797979" stroke-linejoin="miter"/>
      </g>
      <path d="M17.891,29.6862c-0.016,-0.1409,0.5315,-0.3799,1.4543,-1.2516c0.4104,-0.3877,0.3609,-0.5905,0.8341,-1.0437c1.3161,-1.2605,1.3179,-0.9796,1.4275,-1.0065c0.2392,0.1686,1.4357,1.4028,1.5741,1.6752c0.0296,0.0583,0.271,0.1045,-0.9987,1.4925c-0.3701,0.4046,-0.5108,0.3843,-0.9283,0.8095c-0.8781,0.8943,-1.0805,1.6076,-1.2467,1.5587C19.4786,31.7648,17.9412,30.1273,17.891,29.6862z" fill-rule="evenodd" fill="#3E79B4"/>
      <g>
        <path d="M31.8199,22.7351l-0.9172,-0.9452c-0.1149,-0.1184,-0.3013,-0.1184,-0.4162,0l-0.1056,0.1088c-0.0772,-0.0471,-0.5606,-0.514,-0.633,-0.5586l-1.4586,1.4758l0.5773,0.6435l-0.1092,0.1125c-0.1149,0.1184,-0.1149,0.3105,0,0.4289l0.9172,0.9452c0.1149,0.1184,0.3012,0.1184,0.4162,0l1.7291,-1.782C31.9348,23.0456,31.9348,22.8536,31.8199,22.7351z" fill-rule="evenodd" fill="#797979"/>
        <path d="M28.2613,23.2519l0.3489,-0.3921c0,0,1.365,-1.3741,1.3713,-1.3806c0.0993,-0.1023,0.1275,-0.1314,0.1344,-0.1385c0.1149,-0.1184,0.1149,-0.3105,0,-0.4289c0,0,-1.3535,-1.3948,-1.5405,-1.5876c-1.0806,-1.1885,-4.1452,-0.529,-4.7127,-0.0604c1.1064,0.3643,1.3012,-0.2074,2.9196,1.5813c-0.1317,0.3391,-0.4282,0.4413,-0.4282,0.4413c-0.1149,0.1184,-0.1149,0.3105,0,0.4289l1.4911,1.5367C27.9601,23.3704,28.1464,23.3704,28.2613,23.2519z" fill-rule="evenodd" fill="#797979"/>
      </g>
      <path d="M30.5001,30.9526l-0.6726,0.6921c-0.3024,0.3117,-0.7928,0.3117,-1.0952,0l-6.8263,-7.0926c-1.3101,0.4456,-2.4525,0.0611,-2.9793,-0.4817c-0.6907,-0.7118,-1.3729,-2.1567,-0.8745,-3.7836c0.0093,-0.019,0.0262,-0.0448,0.0413,-0.0691l2.2274,2.2955c0.4809,0.4956,0.8189,0.3274,1.2301,-0.0963c0.4111,-0.4237,0.4887,-1.0181,0.1808,-1.3354l-2.2039,-2.2712c0.0267,-0.0157,0.0545,-0.0326,0.0769,-0.0429c1.6453,-0.4625,2.9976,0.3036,3.575,0.9198c0.7269,0.7757,0.8258,1.746,0.3982,3.1319l6.9219,7.0049C30.8025,30.1355,30.8025,30.6409,30.5001,30.9526zM29.5904,29.919c-0.2152,-0.2218,-0.5642,-0.2218,-0.7795,0c-0.2152,0.2218,-0.2152,0.5815,0,0.8033c0.2152,0.2218,0.5642,0.2218,0.7795,0C29.8056,30.5005,29.8056,30.1408,29.5904,29.919z" fill-rule="evenodd" fill="#797979"/>
    </g>
  </g>
</svg>
