<?xml version="1.0" encoding="UTF-8"?>
<!DOCTYPE svg PUBLIC "-//W3C//DTD SVG 1.1//EN" "http://www.w3.org/Graphics/SVG/1.1/DTD/svg11.dtd">
<svg version="1.1" id="Layer_1" xmlns="http://www.w3.org/2000/svg" xmlns:xlink="http://www.w3.org/1999/xlink" x="0px" y="0px" width="32px" height="32px" viewBox="0 0 32 32" enable-background="new 0 0 32 32" xml:space="preserve">
  <g id="icon">
    <path d="M27.996,30.39v0.019c0,0.316,-0.256,0.571,-0.571,0.571h-0.098c-6.519,0,-16.021,0,-22.54,0c-1.175,0,-1.757,-0.574,-1.757,-1.733c0,-7.831,0,-17.662,0,-25.493c0,-1.663,1.229,-2.829,2.948,-2.751v26.997c-0.466,0.168,-0.962,0.302,-1.41,0.529c-0.191,0.097,-0.418,0.404,-0.393,0.582c0.037,0.261,0.234,0.587,0.459,0.711c0.269,0.149,0.639,0.155,0.965,0.156c6.206,0.008,15.396,0.006,21.603,0.006c0.127,0,0.255,0,0.39,0C27.814,29.985,27.996,30.166,27.996,30.39zM29,1c0,8.293,0,18.646,0,27c-6.4,0,-15.628,0,-22,0c0,-8.311,0,-18.665,0,-27C13.34,1,22.6,1,29,1zM14,18.442c0,-0.244,-0.198,-0.442,-0.442,-0.442h-3.117c-0.244,0,-0.442,0.198,-0.442,0.442V24h4V18.442zM20,16.442c0,-0.244,-0.198,-0.442,-0.442,-0.442h-3.117c-0.244,0,-0.442,0.198,-0.442,0.442V24h4V16.442zM26,14.442c0,-0.244,-0.198,-0.442,-0.442,-0.442h-3.117c-0.244,0,-0.442,0.198,-0.442,0.442V24h4V14.442zM26.999,6.463c-0.066,-0.102,-0.178,-0.163,-0.298,-0.163c-0.017,0,-0.034,0.001,-0.052,0.004l-3.436,0.498c-0.124,0.018,-0.228,0.098,-0.277,0.213c-0.049,0.115,-0.035,0.245,0.038,0.347l0.576,0.802l-4.306,3.589l-2.579,-2.696c-0.071,-0.086,-0.175,-0.136,-0.287,-0.136c-0.074,0,-0.146,0.022,-0.209,0.065l-7.126,4.93c-0.055,0.036,-0.092,0.092,-0.105,0.156c-0.013,0.065,-0.001,0.131,0.036,0.186l0.58,0.876c0.039,0.059,0.101,0.098,0.171,0.108l0.024,0.002h0.011c0.047,0,0.094,-0.013,0.134,-0.04l6.255,-4.35l2.624,2.703c0.072,0.087,0.18,0.137,0.296,0.137c0.069,0,0.135,-0.018,0.194,-0.051l0.011,-0.006l5.178,-4.208l0.504,0.691c0.068,0.094,0.173,0.149,0.289,0.149c0.141,0,0.268,-0.083,0.326,-0.211l1.456,-3.255C27.075,6.691,27.065,6.564,26.999,6.463z" fill="#FFFFFF"/>
  </g>
</svg>
