<?xml version="1.0" encoding="UTF-8"?>
<!DOCTYPE svg PUBLIC "-//W3C//DTD SVG 1.1//EN" "http://www.w3.org/Graphics/SVG/1.1/DTD/svg11.dtd">
<svg version="1.1" id="Layer_1" xmlns="http://www.w3.org/2000/svg" xmlns:xlink="http://www.w3.org/1999/xlink" x="0px" y="0px" width="32px" height="32px" viewBox="0 0 32 32" enable-background="new 0 0 32 32" xml:space="preserve">
  <g id="main">
    <g id="icon">
      <path d="M12.46,1.395L11.11,1.577L9.803,1.884L8.551,2.308L7.359,2.845L6.235,3.488L5.183,4.232L4.211,5.071L3.325,5.998L2.53,7.008L1.834,8.096L1.242,9.255L0.7607,10.48L0.3965,11.76L0.1555,13.1L0.04395,14.49L0.0005859,18.31L0.02305,22.14L0.08164,23.42L0.2611,24.47L0.4016,24.92L0.5785,25.32L0.7945,25.66L1.051,25.97L1.351,26.23L1.697,26.45L2.09,26.63L2.532,26.77L3.575,26.95L4.842,27.01L17.16,27.02L16.97,26.1L16.9,25L16.94,24.17L17.06,23.37L17.26,22.59L17.39,22.26L16.92,22.48L16.13,22.77L15.32,22.98L14.47,23.11L13.6,23.15L12.73,23.11L11.89,22.98L11.07,22.77L10.29,22.48L9.541,22.12L8.839,21.7L8.183,21.21L7.578,20.66L7.028,20.06L6.538,19.4L6.111,18.7L5.753,17.96L5.466,17.18L5.256,16.37L5.127,15.52L5.083,14.66L5.127,13.79L5.256,12.94L5.466,12.13L5.753,11.35L6.111,10.61L6.538,9.907L7.028,9.254L7.578,8.65L8.183,8.102L8.839,7.613L9.541,7.188L10.29,6.83L11.07,6.545L11.89,6.336L12.73,6.207L13.6,6.163L14.47,6.207L15.32,6.336L16.14,6.545L16.92,6.83L17.66,7.188L18.37,7.613L19.02,8.102L19.63,8.65L20.18,9.254L20.67,9.907L21.09,10.61L21.45,11.35L21.74,12.13L21.95,12.94L22.08,13.79L22.12,14.66L22.08,15.52L21.95,16.37L21.74,17.18L21.56,17.68L21.85,17.54L22.59,17.26L23.37,17.06L24.17,16.94L25,16.9L26.1,16.97L27.16,17.19L27.27,17.23L27.26,14.69L27.17,13.32L26.95,12L26.61,10.72L26.15,9.496L25.58,8.334L24.91,7.238L24.14,6.216L23.28,5.273L22.33,4.415L21.3,3.65L20.21,2.982L19.04,2.42L17.82,1.968L16.54,1.634L15.22,1.423L13.86,1.342zz" fill="#797979"/>
      <path d="M12.73,6.207L11.89,6.336L11.07,6.545L10.29,6.83L9.541,7.188L8.839,7.614L8.183,8.103L7.578,8.651L7.028,9.254L6.538,9.908L6.111,10.61L5.753,11.35L5.466,12.13L5.256,12.94L5.127,13.79L5.083,14.66L5.127,15.52L5.256,16.37L5.466,17.18L5.753,17.96L6.111,18.7L6.538,19.4L7.028,20.06L7.578,20.66L8.183,21.21L8.839,21.7L9.541,22.12L10.29,22.48L11.07,22.77L11.89,22.98L12.73,23.11L13.6,23.15L14.47,23.11L15.32,22.98L16.14,22.77L16.92,22.48L17.39,22.26L17.54,21.85L17.88,21.14L18.28,20.47L18.75,19.85L19.27,19.27L19.85,18.75L20.47,18.28L21.14,17.88L21.56,17.68L21.74,17.18L21.95,16.37L22.08,15.52L22.12,14.66L22.08,13.79L21.95,12.94L21.74,12.13L21.45,11.35L21.09,10.61L20.67,9.907L20.18,9.254L19.63,8.65L19.02,8.102L18.37,7.613L17.66,7.188L16.92,6.83L16.14,6.545L15.32,6.336L14.47,6.207L13.6,6.163zz" fill-rule="evenodd" fill="#FFFFFF"/>
      <path d="M10.24,14.68L10.96,14.6L11.79,14.57L12.58,14.61L13.25,14.7L13.81,14.86L14.25,15.08L14.59,15.35L14.82,15.68L14.96,16.05L15.01,16.47L14.95,16.89L14.8,17.25L14.57,17.55L14.28,17.79L13.93,17.97L13.54,18.1L13.14,18.18L12.72,18.2L11.95,18.15L11.23,18.01L10.61,17.83L10.14,17.64L9.661,19.64L10.23,19.88L10.97,20.09L11.85,20.23L12.84,20.29L13.94,20.2L14.91,19.96L15.75,19.58L16.45,19.08L17.01,18.49L17.41,17.81L17.66,17.07L17.75,16.29L17.72,15.81L17.65,15.36L17.53,14.95L17.38,14.58L17.18,14.24L16.94,13.94L16.36,13.43L15.7,13.06L14.96,12.8L14.17,12.66L13.35,12.61L12.61,12.64L12.86,10.89L17.29,10.89L17.29,8.701L11,8.701zz" fill="#3E79B4"/>
    </g>
    <g id="overlay">
      <path d="M25.0347,18.8353c3.4017,0,6.1593,2.7576,6.1593,6.1593c0,3.4017,-2.7576,6.1593,-6.1593,6.1593c-3.4017,0,-6.1593,-2.7576,-6.1593,-6.1593C18.8755,21.5929,21.6331,18.8353,25.0347,18.8353z" fill-rule="evenodd" fill="#FFFFFF"/>
      <path d="M25.0072,18.0144c-3.862,0,-6.9928,3.1308,-6.9928,6.9928c0,3.862,3.1308,6.9928,6.9928,6.9928S32,28.8692,32,25.0072C32,21.1452,28.8692,18.0144,25.0072,18.0144zM25.0072,30.9317c-3.272,0,-5.9245,-2.6525,-5.9245,-5.9245c0,-3.272,2.6525,-5.9245,5.9245,-5.9245s5.9245,2.6525,5.9245,5.9245C30.9317,28.2792,28.2792,30.9317,25.0072,30.9317z" fill-rule="evenodd" fill="#797979"/>
      <path d="M23.8619,25.0174c-0.0024,0.7312,0.0646,1.0655,0.666,1.0684c0.6014,0.0029,0.6104,-0.4072,0.6128,-1.1383c0.0024,-0.7312,-0.2011,-5.3477,-0.5908,-5.3497C24.1603,19.596,23.8643,24.2862,23.8619,25.0174z" fill-rule="evenodd" fill="#3E79B4"/>
      <path d="M25.3505,25.6061c-0.5171,-0.5216,-0.7824,-0.6867,-1.2092,-0.2631c-0.4268,0.4236,-0.3121,0.5789,0.205,1.1005c0.5171,0.5216,3.5598,3.1085,3.8363,2.834C28.4591,29.003,25.8676,26.1277,25.3505,25.6061z" fill-rule="evenodd" fill="#3E79B4"/>
    </g>
  </g>
</svg>
